# xmcd
#
# Track frame offsets: 
#        150
#        8110
#        14675
#        21255
#        25105
#        28335
#        35740
#        44112
#        50125
#        57260
#        62295
#        69905
#        74267
#        79932
#        86842
#        91867
#        102825
#
# Disc length: 1508 seconds
#
# Revision: 0
# Processed by: cddbd v1.5.2PL0 Copyright (c) Steve Scherf et al.
# Submitted via: ExactAudioCopyFreeDBPlugin 1.0
#
DISCID=e605e211
DTITLE=吉松隆＆磯田健一郎 - 夢の動物園
DYEAR=1991
DGENRE=piano solo
TTITLE0=小さな前奏曲～夢の動物園への
TTITLE1=マルキド博士の肖像
TTITLE2=ユニコーンアイス
TTITLE3=すみれの昼の歌
TTITLE4=木の上のチェシャ猫のおどり
TTITLE5=ねこりんの古いうた
TTITLE6=虹色のバラのワルツ
TTITLE7=L嬢の肖像
TTITLE8=ユニコーンインターミッション
TTITLE9=遠い瞳によせるワルツ
TTITLE10=海に沈んだ青いオルゴール
TTITLE11=ハレー教授のビーズ玉　
TTITLE12=ユニコーンの角によせる小さなソナチネ　第1楽章
TTITLE13=ユニコーンの角によせる小さなソナチネ　第２楽章
TTITLE14=ユニコーンの角によせる小さなソナチネ　第３楽章
TTITLE15=高価で感情的なワルツ
TTITLE16=小さな人形の子守唄
EXTD=
EXTT0=
EXTT1=
EXTT2=
EXTT3=
EXTT4=
EXTT5=
EXTT6=
EXTT7=
EXTT8=
EXTT9=
EXTT10=
EXTT11=
EXTT12=
EXTT13=
EXTT14=
EXTT15=
EXTT16=
PLAYORDER=
